<!-- icon666.com - MILLIONS vector ICONS FREE --><svg fill="none" viewBox="0 0 24 24" xmlns="http://www.w3.org/2000/svg"><path clip-rule="evenodd" d="m7.15851 21.7526c-.41564.3636-1.0474.3215-1.41108-.0941l-3.50001-4c-.32989-.377-.32989-.94 0-1.317l3.50001-4c.36368-.4157.99544-.4578 1.41108-.0941.41563.3637.45775.9955.09407 1.4111l-2.04881 2.3415h3.29623c6.3513 0 11.5-5.1487 11.5-11.49998v-1.50003c0-.55229.4477-1 1-1s1 .44771 1 1v1.50003c0 7.45588-6.0442 13.49998-13.5 13.49998h-3.29623l2.04881 2.3415c.36368.4156.32156 1.0474-.09407 1.4111z" fill="rgb(0,0,0)" fill-rule="evenodd"></path></svg>